<svg xmlns="http://www.w3.org/2000/svg" xmlns:xlink="http://www.w3.org/1999/xlink" width="713.65" height="606.02" viewBox="0 0 713.65 606.02"><defs><style>.cls-1{fill:#c0d1ed;}.cls-2{fill:#e5e9ec;}.cls-3{fill:#ade0eb;}.cls-4{fill:#a3d1db;}.cls-5{fill:#086b86;}.cls-6{fill:#909aa4;}.cls-7{fill:#3bad9b;}.cls-8{fill:#38c7b0;}.cls-9{fill:#f9ead1;}.cls-10{fill:#a6b7cc;}.cls-11{fill:#8a97aa;}.cls-12{fill:#a0a025;}.cls-13{fill:#c6c453;}.cls-14,.cls-24,.cls-26,.cls-28,.cls-41,.cls-44,.cls-49,.cls-50,.cls-52,.cls-55,.cls-61,.cls-63,.cls-64,.cls-65,.cls-67,.cls-69,.cls-70,.cls-71,.cls-73,.cls-74,.cls-76,.cls-78,.cls-80{fill:none;}.cls-14{stroke:#534741;}.cls-14,.cls-24,.cls-26,.cls-28,.cls-41,.cls-44,.cls-49,.cls-50,.cls-52,.cls-61,.cls-63,.cls-64,.cls-65,.cls-67,.cls-69,.cls-71,.cls-73,.cls-74,.cls-76,.cls-78,.cls-80{stroke-linecap:round;stroke-linejoin:round;}.cls-14,.cls-61,.cls-63,.cls-64,.cls-65,.cls-67,.cls-69,.cls-70,.cls-71,.cls-73,.cls-74,.cls-76,.cls-78,.cls-80{stroke-width:1.91px;}.cls-15{fill:#c6bdaf;}.cls-16{fill:#e2d6c3;}.cls-17{fill:#968a7a;}.cls-18,.cls-19,.cls-20{fill:#fff;}.cls-19{opacity:0.38;}.cls-20{opacity:0.19;}.cls-21{fill:#5e6675;}.cls-22{fill:#9dc7c2;}.cls-23{fill:#fecab3;}.cls-24{stroke:#909aa4;stroke-width:0.96px;}.cls-25{fill:#fcb28d;}.cls-26,.cls-55{stroke:#fcb28d;}.cls-26{stroke-width:3.64px;}.cls-27{fill:#ff6c5c;}.cls-28,.cls-44{stroke:#b3b3b3;}.cls-28{stroke-width:4.35px;}.cls-29{fill:#297db5;}.cls-30{fill:#02b3b2;}.cls-31{fill:#96c9e0;}.cls-32{fill:#455e8f;}.cls-33{fill:#dd8262;}.cls-34{fill:#395487;}.cls-35{fill:#ff8578;}.cls-36{fill:#2d2620;}.cls-37{fill:url(#linear-gradient);}.cls-38{fill:url(#linear-gradient-2);}.cls-39{fill:#68584c;}.cls-40{fill:url(#linear-gradient-3);}.cls-41{stroke:#dd8262;stroke-width:8.83px;}.cls-42{fill:#f7a379;}.cls-43{fill:#c71b54;}.cls-44{stroke-width:10.09px;}.cls-45{fill:#ed2064;}.cls-46{fill:#028fa6;}.cls-47{fill:#02a7c2;}.cls-48{fill:url(#linear-gradient-4);}.cls-49,.cls-50{stroke:#d8654e;}.cls-49{stroke-width:0.63px;}.cls-50{stroke-width:1.26px;}.cls-51{fill:url(#linear-gradient-5);}.cls-52{stroke:#845d42;stroke-width:1.89px;}.cls-53{fill:url(#linear-gradient-6);}.cls-54{fill:#51395d;}.cls-55,.cls-70{stroke-miterlimit:10;}.cls-55{stroke-width:8.82px;}.cls-56,.cls-62,.cls-68,.cls-72,.cls-75,.cls-77,.cls-79{opacity:0.21;}.cls-56{fill:url(#linear-gradient-7);}.cls-57{fill:#6166af;}.cls-58{fill:#999;}.cls-59{fill:#e6e6e6;}.cls-60{fill:#333;}.cls-61,.cls-63,.cls-64,.cls-65,.cls-67,.cls-69,.cls-70,.cls-71,.cls-73,.cls-74,.cls-76,.cls-78,.cls-80{stroke:#00a6ff;}.cls-61{stroke-dasharray:3.82 2.87;}.cls-62{fill:url(#linear-gradient-8);}.cls-64{stroke-dasharray:3.85 2.89;}.cls-65{stroke-dasharray:3.86 2.9;}.cls-66{fill:#00a6ff;}.cls-67{stroke-dasharray:3.8 2.85;}.cls-68{fill:url(#linear-gradient-9);}.cls-69{stroke-dasharray:3.85 2.89;}.cls-71{stroke-dasharray:3.76 2.82;}.cls-72{fill:url(#linear-gradient-10);}.cls-73{stroke-dasharray:3.86 2.9;}.cls-74{stroke-dasharray:3.77 2.83;}.cls-75{fill:url(#linear-gradient-11);}.cls-76{stroke-dasharray:3.86 2.89;}.cls-77{fill:url(#linear-gradient-12);}.cls-78{stroke-dasharray:3.85 2.89;}.cls-79{fill:url(#linear-gradient-13);}.cls-80{stroke-dasharray:3.77 2.83;}</style><linearGradient id="linear-gradient" x1="9.85" y1="375.31" x2="18.98" y2="384.45" gradientTransform="matrix(-1, 0, 0, 1, 239.06, 0)" gradientUnits="userSpaceOnUse"><stop offset="0" stop-color="#d8654e"/><stop offset="0.24" stop-color="#de7259"/><stop offset="0.68" stop-color="#ef9575"/><stop offset="1" stop-color="#fcb28d"/></linearGradient><linearGradient id="linear-gradient-2" x1="397.72" y1="785.64" x2="405.82" y2="780.62" gradientTransform="matrix(-0.78, -0.62, -0.62, 0.78, 1042.59, 7.48)" gradientUnits="userSpaceOnUse"><stop offset="0" stop-color="#d8654e"/><stop offset="0.18" stop-color="#e0765c"/><stop offset="0.54" stop-color="#f4a17f"/><stop offset="0.67" stop-color="#fcb28d"/></linearGradient><linearGradient id="linear-gradient-3" x1="750.81" y1="-588.09" x2="754.75" y2="-590.54" gradientTransform="matrix(0, 1, 1, 0, 811.49, -390.32)" xlink:href="#linear-gradient-2"/><linearGradient id="linear-gradient-4" x1="386.25" y1="249.16" x2="407.44" y2="270.35" gradientTransform="matrix(1, 0, 0, 1, 0, 0)" xlink:href="#linear-gradient"/><linearGradient id="linear-gradient-5" x1="208.78" y1="537.34" x2="227.57" y2="525.69" gradientTransform="matrix(0.93, 0.37, -0.37, 0.93, 365.35, -358.23)" xlink:href="#linear-gradient-2"/><linearGradient id="linear-gradient-6" x1="1017.34" y1="-471.64" x2="1026.49" y2="-477.32" gradientTransform="translate(883.57 1266.4) rotate(-90)" xlink:href="#linear-gradient-2"/><linearGradient id="linear-gradient-7" x1="347.12" y1="214.25" x2="408.53" y2="214.25" gradientUnits="userSpaceOnUse"><stop offset="0" stop-color="#f0f"/><stop offset="0.07" stop-color="#d52aff"/><stop offset="0.2" stop-color="#956aff"/><stop offset="0.32" stop-color="#609fff"/><stop offset="0.43" stop-color="#36c9ff"/><stop offset="0.52" stop-color="#19e6ff"/><stop offset="0.61" stop-color="#06f9ff"/><stop offset="0.67" stop-color="aqua"/></linearGradient><linearGradient id="linear-gradient-8" x1="498.52" y1="117.47" x2="498.52" y2="185.02" xlink:href="#linear-gradient-7"/><linearGradient id="linear-gradient-9" x1="136.81" y1="67.33" x2="136.81" y2="134.62" xlink:href="#linear-gradient-7"/><linearGradient id="linear-gradient-10" x1="379.08" y1="35.52" x2="379.08" y2="103.07" xlink:href="#linear-gradient-7"/><linearGradient id="linear-gradient-11" x1="666.75" y1="91.69" x2="666.75" y2="159.24" xlink:href="#linear-gradient-7"/><linearGradient id="linear-gradient-12" x1="172.23" y1="237.04" x2="172.23" y2="304.59" xlink:href="#linear-gradient-7"/><linearGradient id="linear-gradient-13" x1="230.47" y1="86.87" x2="230.47" y2="154.42" xlink:href="#linear-gradient-7"/></defs><title>Asset 4</title><g id="Layer_2" data-name="Layer 2"><g id="OBJECTS"><path class="cls-1" d="M588,51.19H565.36a12.91,12.91,0,0,1-12.91-12.91v-.87A12.91,12.91,0,0,0,539.54,24.5H451.35a12.91,12.91,0,0,0-12.91,12.91v1.74a12.91,12.91,0,0,0,12.91,12.91h12.73A12.91,12.91,0,0,1,477,65h0a12.91,12.91,0,0,1-12.91,12.91H451.35a12.91,12.91,0,0,0-12.91,12.91v1.74a12.91,12.91,0,0,0,12.91,12.91h61.27a12.91,12.91,0,0,0,12.91-12.91v-.87a12.91,12.91,0,0,1,12.91-12.91H588A12.91,12.91,0,0,0,601,65.84V64.09A12.91,12.91,0,0,0,588,51.19Z"/><path class="cls-2" d="M614.12,185V100.07L588.86,81.36V141c-.28,0-.55,0-.83,0h-4.51a24.14,24.14,0,0,0-24.14,24.14v23.36l-17.44-6.16-13.38,5.33-9.48-2.6V146.29a16.71,16.71,0,0,0-5.84-28.36V101a10.87,10.87,0,0,0-2.61-20.23V67.72a6.07,6.07,0,0,0,0-11.26V43.8a1.91,1.91,0,0,0-1.91-1.91h-.36a1.91,1.91,0,0,0-1.91,1.91V56.46a6.07,6.07,0,0,0,0,11.26V80.77A10.87,10.87,0,0,0,503.84,101v16.93A16.71,16.71,0,0,0,498,146.29v33l-12.17-3.34v56.43h-8V133.76l-25.53,7V117.93L427.05,99.22V147.7l-10.79,3V129.15a5.46,5.46,0,0,0-5.46-5.46h-1a5.46,5.46,0,0,0-5.46,5.46V232.33H393.54V97.06h-4.92V87.39H377.73V50.64a5.46,5.46,0,0,0-5.46-5.46h-1a5.46,5.46,0,0,0-5.46,5.46V87.39h-7V63.31a5.46,5.46,0,0,0-5.46-5.46h-1a5.46,5.46,0,0,0-5.46,5.46V87.39H317v9.67H312v79.15h-7.26V128l-17,18.71v29.5H277.59V71.86A1.91,1.91,0,0,0,275.68,70h-.36a1.91,1.91,0,0,0-1.91,1.91V176.21h-4.33v-83a2.42,2.42,0,0,0-2.42-2.42h-2.59a2.42,2.42,0,0,0-2.42,2.42v83h-5.12v56.12h-5.27v-75.2a5.46,5.46,0,0,0-5.46-5.46h-1A5.41,5.41,0,0,0,243,152V69.29L226,88v40.74a5.46,5.46,0,0,0-4.15-.55L214.45,100a3.91,3.91,0,0,0-3.76-2.94h-3.34V88.86h1.45L201.37,43.8a1.42,1.42,0,0,0-2.8,0l-7.43,45.06h1.45v8.21h-3.34A3.91,3.91,0,0,0,185.5,100l-7.44,28.18a5.75,5.75,0,0,0-1.39-.19,6,6,0,0,0-5.87,5.76h-.52a4.38,4.38,0,0,0-4.38,4.38v38.07l-9.78,4.42V146.12l-17,6.53V188.3l-9.78,4.42v-46.3a5.44,5.44,0,0,0-2.3-4.44,6.06,6.06,0,0,0,2.23-4.69,5.9,5.9,0,1,0-11.79,0,6.06,6.06,0,0,0,2.23,4.69,5.45,5.45,0,0,0-2.3,4.44v51.13l-9.13-3.23v-47.9A5.45,5.45,0,0,0,106,142a6.06,6.06,0,0,0,2.23-4.69,5.9,5.9,0,1,0-11.79,0A6.06,6.06,0,0,0,98.64,142a5.44,5.44,0,0,0-2.3,4.44V190.1l-9.13-3.23V160.8a5.46,5.46,0,0,0-5.46-5.46h-1a5.46,5.46,0,0,0-5.46,5.46v21.85l-1-.36-.49.2A26.58,26.58,0,0,0,57,207.18V411.09H633.6V176.21Z"/><polygon class="cls-3" points="536.88 257.36 536.88 199.92 493.6 199.92 493.6 240.32 455.7 240.32 455.7 203.79 442.72 203.79 409.09 145.56 375.47 203.79 362.49 203.79 362.49 227.82 330.29 227.82 330.29 203.79 307.01 203.79 307.01 163.95 265.83 163.95 265.83 184.61 237.08 184.61 237.08 203.79 237.08 257.36 211.29 257.36 144.64 273.64 144.64 378.16 644.76 379.52 644.76 257.36 536.88 257.36"/><rect class="cls-4" x="210.64" y="266.66" width="6.32" height="4.91"/><rect class="cls-4" x="210.64" y="273.51" width="6.32" height="4.91"/><rect class="cls-4" x="210.64" y="280.36" width="6.32" height="4.91"/><rect class="cls-4" x="210.64" y="287.21" width="6.32" height="4.91"/><rect class="cls-4" x="219.11" y="266.66" width="6.32" height="4.91"/><rect class="cls-4" x="219.11" y="273.51" width="6.32" height="4.91"/><rect class="cls-4" x="219.11" y="280.36" width="6.32" height="4.91"/><rect class="cls-4" x="219.11" y="287.21" width="6.32" height="4.91"/><rect class="cls-4" x="227.73" y="266.66" width="6.32" height="4.91"/><rect class="cls-4" x="227.73" y="273.51" width="6.32" height="4.91"/><rect class="cls-4" x="227.73" y="280.36" width="6.32" height="4.91"/><rect class="cls-4" x="227.73" y="287.21" width="6.32" height="4.91"/><rect class="cls-4" x="542.47" y="298.58" width="6.32" height="4.91"/><rect class="cls-4" x="542.47" y="305.43" width="6.32" height="4.91"/><rect class="cls-4" x="542.47" y="312.28" width="6.32" height="4.91"/><rect class="cls-4" x="542.47" y="319.12" width="6.32" height="4.91"/><rect class="cls-4" x="550.94" y="298.58" width="6.32" height="4.91"/><rect class="cls-4" x="550.94" y="305.43" width="6.32" height="4.91"/><rect class="cls-4" x="550.94" y="312.28" width="6.32" height="4.91"/><rect class="cls-4" x="550.94" y="319.12" width="6.32" height="4.91"/><rect class="cls-4" x="559.56" y="298.58" width="6.32" height="4.91"/><rect class="cls-4" x="559.56" y="305.43" width="6.32" height="4.91"/><rect class="cls-4" x="559.56" y="312.28" width="6.32" height="4.91"/><rect class="cls-4" x="559.56" y="319.12" width="6.32" height="4.91"/><rect class="cls-4" x="461.98" y="249.49" width="6.32" height="4.91"/><rect class="cls-4" x="461.98" y="256.34" width="6.32" height="4.91"/><rect class="cls-4" x="461.98" y="263.19" width="6.32" height="4.91"/><rect class="cls-4" x="461.98" y="270.03" width="6.32" height="4.91"/><rect class="cls-4" x="470.46" y="249.49" width="6.32" height="4.91"/><rect class="cls-4" x="470.46" y="256.34" width="6.32" height="4.91"/><rect class="cls-4" x="470.46" y="263.19" width="6.32" height="4.91"/><rect class="cls-4" x="470.46" y="270.03" width="6.32" height="4.91"/><rect class="cls-4" x="479.08" y="249.49" width="6.32" height="4.91"/><rect class="cls-4" x="479.08" y="256.34" width="6.32" height="4.91"/><rect class="cls-4" x="479.08" y="263.19" width="6.32" height="4.91"/><rect class="cls-4" x="479.08" y="270.03" width="6.32" height="4.91"/><rect class="cls-4" x="210.64" y="299.55" width="6.32" height="4.91"/><rect class="cls-4" x="210.64" y="306.39" width="6.32" height="4.91"/><rect class="cls-4" x="210.64" y="313.24" width="6.32" height="4.91"/><rect class="cls-4" x="210.64" y="320.09" width="6.32" height="4.91"/><rect class="cls-4" x="219.11" y="299.55" width="6.32" height="4.91"/><rect class="cls-4" x="219.11" y="306.39" width="6.32" height="4.91"/><rect class="cls-4" x="219.11" y="313.24" width="6.32" height="4.91"/><rect class="cls-4" x="219.11" y="320.09" width="6.32" height="4.91"/><rect class="cls-4" x="227.73" y="299.55" width="6.32" height="4.91"/><rect class="cls-4" x="227.73" y="306.39" width="6.32" height="4.91"/><rect class="cls-4" x="227.73" y="313.24" width="6.32" height="4.91"/><rect class="cls-4" x="227.73" y="320.09" width="6.32" height="4.91"/><rect class="cls-4" x="179.72" y="299.55" width="6.32" height="4.91"/><rect class="cls-4" x="179.72" y="306.39" width="6.32" height="4.91"/><rect class="cls-4" x="179.72" y="313.24" width="6.32" height="4.91"/><rect class="cls-4" x="179.72" y="320.09" width="6.32" height="4.91"/><rect class="cls-4" x="188.19" y="299.55" width="6.32" height="4.91"/><rect class="cls-4" x="188.19" y="306.39" width="6.32" height="4.91"/><rect class="cls-4" x="188.19" y="313.24" width="6.32" height="4.91"/><rect class="cls-4" x="188.19" y="320.09" width="6.32" height="4.91"/><rect class="cls-4" x="196.82" y="299.55" width="6.32" height="4.91"/><rect class="cls-4" x="196.82" y="306.39" width="6.32" height="4.91"/><rect class="cls-4" x="196.82" y="313.24" width="6.32" height="4.91"/><rect class="cls-4" x="196.82" y="320.09" width="6.32" height="4.91"/><rect class="cls-4" x="148.8" y="299.55" width="6.32" height="4.91"/><rect class="cls-4" x="148.8" y="306.39" width="6.32" height="4.91"/><rect class="cls-4" x="148.8" y="313.24" width="6.32" height="4.91"/><rect class="cls-4" x="148.8" y="320.09" width="6.32" height="4.91"/><rect class="cls-4" x="157.28" y="299.55" width="6.32" height="4.91"/><rect class="cls-4" x="157.28" y="306.39" width="6.32" height="4.91"/><rect class="cls-4" x="157.28" y="313.24" width="6.32" height="4.91"/><rect class="cls-4" x="157.28" y="320.09" width="6.32" height="4.91"/><rect class="cls-4" x="165.9" y="299.55" width="6.32" height="4.91"/><rect class="cls-4" x="165.9" y="306.39" width="6.32" height="4.91"/><rect class="cls-4" x="165.9" y="313.24" width="6.32" height="4.91"/><rect class="cls-4" x="165.9" y="320.09" width="6.32" height="4.91"/><rect class="cls-4" x="368.15" y="213.04" width="8.42" height="6.21"/><rect class="cls-4" x="379.08" y="213.04" width="8.42" height="6.21"/><rect class="cls-4" x="390.01" y="213.04" width="8.42" height="6.21"/><rect class="cls-4" x="400.94" y="213.04" width="8.42" height="6.21"/><rect class="cls-4" x="368.15" y="222.15" width="8.42" height="6.21"/><rect class="cls-4" x="379.08" y="222.15" width="8.42" height="6.21"/><rect class="cls-4" x="390.01" y="222.15" width="8.42" height="6.21"/><rect class="cls-4" x="400.94" y="222.15" width="8.42" height="6.21"/><rect class="cls-4" x="368.15" y="231.26" width="8.42" height="6.21"/><rect class="cls-4" x="379.08" y="231.26" width="8.42" height="6.21"/><rect class="cls-4" x="390.01" y="231.26" width="8.42" height="6.21"/><rect class="cls-4" x="400.94" y="231.26" width="8.42" height="6.21"/><rect class="cls-4" x="368.15" y="240.38" width="8.42" height="6.21"/><rect class="cls-4" x="379.08" y="240.38" width="8.42" height="6.21"/><rect class="cls-4" x="390.01" y="240.38" width="8.42" height="6.21"/><rect class="cls-4" x="400.94" y="240.38" width="8.42" height="6.21"/><rect class="cls-4" x="368.15" y="249.49" width="8.42" height="6.21"/><rect class="cls-4" x="379.08" y="249.49" width="8.42" height="6.21"/><rect class="cls-4" x="390.01" y="249.49" width="8.42" height="6.21"/><rect class="cls-4" x="400.94" y="249.49" width="8.42" height="6.21"/><rect class="cls-4" x="368.15" y="258.6" width="8.42" height="6.21"/><rect class="cls-4" x="379.08" y="258.6" width="8.42" height="6.21"/><rect class="cls-4" x="390.01" y="258.6" width="8.42" height="6.21"/><rect class="cls-4" x="400.94" y="258.6" width="8.42" height="6.21"/><rect class="cls-4" x="368.15" y="267.71" width="8.42" height="6.21"/><rect class="cls-4" x="379.08" y="267.71" width="8.42" height="6.21"/><rect class="cls-4" x="390.01" y="267.71" width="8.42" height="6.21"/><rect class="cls-4" x="400.94" y="267.71" width="8.42" height="6.21"/><rect class="cls-4" x="269.31" y="163.95" width="1.89" height="186.83" transform="translate(540.5 514.73) rotate(180)"/><rect class="cls-4" x="273.98" y="163.95" width="1.89" height="186.83" transform="translate(549.86 514.73) rotate(180)"/><rect class="cls-4" x="278.66" y="163.95" width="1.89" height="186.83" transform="translate(559.22 514.73) rotate(180)"/><rect class="cls-4" x="283.34" y="163.95" width="1.89" height="186.83" transform="translate(568.58 514.73) rotate(180)"/><rect class="cls-4" x="290.43" y="170.78" width="10.54" height="5.35"/><rect class="cls-4" x="290.43" y="178.69" width="10.54" height="5.35"/><rect class="cls-4" x="290.43" y="186.6" width="10.54" height="5.35"/><rect class="cls-4" x="290.43" y="194.5" width="10.54" height="5.35"/><rect class="cls-4" x="290.43" y="202.41" width="10.54" height="5.35"/><rect class="cls-4" x="290.43" y="210.32" width="10.54" height="5.35"/><rect class="cls-4" x="290.43" y="218.23" width="10.54" height="5.35"/><rect class="cls-4" x="290.43" y="226.13" width="10.54" height="5.35"/><rect class="cls-4" x="290.43" y="234.04" width="10.54" height="5.35"/><rect class="cls-4" x="290.43" y="241.95" width="10.54" height="5.35"/><rect class="cls-4" x="290.43" y="249.86" width="10.54" height="5.35"/><rect class="cls-4" x="290.43" y="257.77" width="10.54" height="5.35"/><rect class="cls-4" x="244.55" y="198.12" width="10.54" height="5.35"/><rect class="cls-4" x="244.55" y="190.19" width="10.54" height="5.35"/><rect class="cls-4" x="244.55" y="206.03" width="10.54" height="5.35"/><rect class="cls-4" x="244.55" y="213.94" width="10.54" height="5.35"/><rect class="cls-4" x="244.55" y="221.85" width="10.54" height="5.35"/><rect class="cls-4" x="244.55" y="229.76" width="10.54" height="5.35"/><rect class="cls-4" x="244.55" y="237.66" width="10.54" height="5.35"/><rect class="cls-4" x="244.55" y="245.57" width="10.54" height="5.35"/><rect class="cls-4" x="244.55" y="253.48" width="10.54" height="5.35"/><rect class="cls-4" x="244.55" y="261.39" width="10.54" height="5.35"/><rect class="cls-4" x="244.55" y="269.29" width="10.54" height="5.35"/><rect class="cls-4" x="244.55" y="277.2" width="10.54" height="5.35"/><rect class="cls-4" x="244.55" y="285.11" width="10.54" height="5.35"/><rect class="cls-4" x="315.39" y="209.14" width="8.74" height="5.35"/><rect class="cls-4" x="315.39" y="217.05" width="8.74" height="5.35"/><rect class="cls-4" x="315.39" y="224.96" width="8.74" height="5.35"/><rect class="cls-4" x="315.39" y="232.87" width="8.74" height="5.35"/><rect class="cls-4" x="315.39" y="240.77" width="8.74" height="5.35"/><rect class="cls-4" x="315.39" y="248.68" width="8.74" height="5.35"/><rect class="cls-4" x="315.39" y="256.59" width="8.74" height="5.35"/><rect class="cls-4" x="315.39" y="264.5" width="8.74" height="5.35"/><rect class="cls-4" x="315.39" y="272.4" width="8.74" height="5.35"/><rect class="cls-4" x="315.39" y="280.31" width="8.74" height="5.35"/><rect class="cls-4" x="542.47" y="267.36" width="92.35" height="3.97"/><rect class="cls-4" x="542.47" y="274.09" width="92.35" height="3.97"/><rect class="cls-4" x="542.47" y="280.82" width="92.35" height="3.97"/><rect class="cls-4" x="542.47" y="287.55" width="92.35" height="3.97"/><rect class="cls-4" x="516.87" y="208.35" width="3.89" height="136.45"/><rect class="cls-4" x="523.01" y="208.35" width="3.89" height="136.45"/><rect class="cls-4" x="529.15" y="208.35" width="3.89" height="136.45"/><rect class="cls-4" x="498.35" y="208.35" width="3.89" height="136.45"/><rect class="cls-4" x="504.49" y="208.35" width="3.89" height="136.45"/><rect class="cls-4" x="510.63" y="208.35" width="3.89" height="136.45"/><path class="cls-5" d="M254.46,494.46H22.09A22.09,22.09,0,0,1,0,472.37H0a22.09,22.09,0,0,1,22.09-22.09H254.46a22.09,22.09,0,0,1,22.09,22.09h0A22.09,22.09,0,0,1,254.46,494.46Z"/><path class="cls-5" d="M691.56,494.46H491.94a22.09,22.09,0,0,1-22.09-22.09h0a22.09,22.09,0,0,1,22.09-22.09H691.56a22.09,22.09,0,0,1,22.09,22.09h0A22.09,22.09,0,0,1,691.56,494.46Z"/><path class="cls-6" d="M677.33,451.4H90.11A22.09,22.09,0,0,1,68,429.31h0a22.09,22.09,0,0,1,22.09-22.09H677.33a22.09,22.09,0,0,1,22.09,22.09h0A22.09,22.09,0,0,1,677.33,451.4Z"/><circle class="cls-7" cx="669.54" cy="461.12" r="28.12"/><path class="cls-8" d="M669.54,433v56.23a28.12,28.12,0,1,0,0-56.23Z"/><rect class="cls-9" x="52.4" y="374.35" width="576.15" height="36.74"/><path class="cls-1" d="M643.51,128.4H609.2a13.76,13.76,0,0,1-13.76-13.76h0a13.76,13.76,0,0,1,13.76-13.76h34.3a13.76,13.76,0,0,1,13.76,13.76h0A13.76,13.76,0,0,1,643.51,128.4Z"/><polygon class="cls-1" points="618.35 202.29 618.35 401.93 528.84 401.93 528.84 246.23 536.98 242.25 544.08 238.76 554.39 233.69 561.5 230.2 571.82 225.14 578.92 221.64 589.79 216.32 596.88 212.84 607.2 207.76 614.3 204.28 618.35 202.29"/><polygon class="cls-10" points="578.92 221.64 578.92 401.93 571.82 401.93 571.82 225.14 578.92 221.64"/><polygon class="cls-10" points="596.88 212.84 596.88 401.93 589.79 401.93 589.79 216.32 596.88 212.84"/><polygon class="cls-10" points="614.3 204.28 614.3 401.93 607.2 401.93 607.2 207.76 614.3 204.28"/><polygon class="cls-10" points="544.08 238.76 544.08 401.93 536.98 401.93 536.98 242.25 544.08 238.76"/><polygon class="cls-10" points="561.5 230.2 561.5 401.93 554.39 401.93 554.39 233.69 561.5 230.2"/><polygon class="cls-11" points="541.08 401.93 541.08 240.23 536.98 242.25 536.98 401.93 541.08 401.93"/><polygon class="cls-11" points="558.49 401.93 558.49 231.68 554.39 233.69 554.39 401.93 558.49 401.93"/><polygon class="cls-11" points="575.92 401.93 575.92 223.12 571.82 225.14 571.82 401.93 575.92 401.93"/><polygon class="cls-11" points="593.34 401.93 593.34 214.58 589.24 216.58 589.24 401.93 593.34 401.93"/><polygon class="cls-11" points="610.75 401.93 610.75 206.02 606.65 208.04 606.65 401.93 610.75 401.93"/><circle class="cls-12" cx="613.13" cy="378.06" r="38.38"/><path class="cls-13" d="M613.13,339.68v76.76a38.38,38.38,0,0,0,0-76.76Z"/><path class="cls-14" d="M640.53,378.06a27.4,27.4,0,1,1-54.8,0"/><path class="cls-14" d="M628.55,378.06a15.42,15.42,0,1,1-30.84,0"/><line class="cls-14" x1="613.13" y1="365.36" x2="613.13" y2="459.08"/><circle class="cls-12" cx="599.07" cy="461.12" r="28.12"/><path class="cls-13" d="M599.07,433v56.23a28.12,28.12,0,1,0,0-56.23Z"/><path class="cls-12" d="M532.82,454.33a34.3,34.3,0,0,0-34.3,34.3h68.61A34.3,34.3,0,0,0,532.82,454.33Z"/><path class="cls-13" d="M570.59,469.79a18.84,18.84,0,0,0-18.84,18.84h37.69A18.84,18.84,0,0,0,570.59,469.79Z"/><rect class="cls-15" x="400.97" y="245.13" width="84.62" height="42.31"/><rect class="cls-9" x="328.56" y="274.42" width="184.91" height="127.75"/><rect class="cls-16" x="321.23" y="287.44" width="199.36" height="29.56"/><rect class="cls-15" x="328.36" y="317.01" width="185.1" height="5.4"/><rect class="cls-15" x="328.36" y="360.13" width="185.1" height="5.4"/><rect class="cls-16" x="321.23" y="330.57" width="199.36" height="29.56"/><rect class="cls-16" x="321.23" y="373.69" width="199.36" height="29.56"/><rect class="cls-17" x="400.97" y="272.8" width="84.62" height="1.63"/><rect class="cls-17" x="400.97" y="251.37" width="84.62" height="10.85"/><rect class="cls-18" x="342.68" y="293.27" width="11.93" height="17.9"/><rect class="cls-17" x="345.3" y="295.59" width="6.69" height="13.28"/><polygon class="cls-19" points="351.99 296.85 345.3 303.53 345.3 307.18 351.99 300.49 351.99 296.85"/><rect class="cls-18" x="362.96" y="293.27" width="11.93" height="17.9"/><rect class="cls-17" x="365.58" y="295.59" width="6.69" height="13.28"/><polygon class="cls-19" points="372.27 296.85 365.58 303.53 365.58 307.18 372.27 300.49 372.27 296.85"/><rect class="cls-18" x="383.24" y="293.27" width="11.93" height="17.9"/><rect class="cls-17" x="385.87" y="295.59" width="6.69" height="13.28"/><polygon class="cls-19" points="392.56 296.85 385.87 303.53 385.87 307.18 392.56 300.49 392.56 296.85"/><rect class="cls-18" x="403.53" y="293.27" width="11.93" height="17.9"/><rect class="cls-17" x="406.15" y="295.59" width="6.69" height="13.28"/><polygon class="cls-19" points="412.84 296.85 406.15 303.53 406.15 307.18 412.84 300.49 412.84 296.85"/><rect class="cls-18" x="423.81" y="293.27" width="11.93" height="17.9"/><rect class="cls-17" x="426.43" y="295.59" width="6.69" height="13.28"/><polygon class="cls-19" points="433.12 296.85 426.43 303.53 426.43 307.18 433.12 300.49 433.12 296.85"/><rect class="cls-18" x="444.09" y="293.27" width="11.93" height="17.9"/><rect class="cls-17" x="446.72" y="295.59" width="6.69" height="13.28"/><polygon class="cls-19" points="453.4 296.85 446.71 303.53 446.71 307.18 453.4 300.49 453.4 296.85"/><rect class="cls-18" x="464.38" y="293.27" width="11.93" height="17.9"/><rect class="cls-17" x="467" y="295.59" width="6.69" height="13.28"/><polygon class="cls-19" points="473.69 296.85 467 303.53 467 307.18 473.69 300.49 473.69 296.85"/><rect class="cls-18" x="484.66" y="293.27" width="11.93" height="17.9"/><rect class="cls-17" x="487.28" y="295.59" width="6.69" height="13.28"/><polygon class="cls-19" points="493.97 296.85 487.28 303.53 487.28 307.18 493.97 300.49 493.97 296.85"/><rect class="cls-18" x="342.68" y="336.4" width="11.93" height="17.9"/><rect class="cls-17" x="345.3" y="338.71" width="6.69" height="13.28"/><polygon class="cls-19" points="351.99 339.97 345.3 346.66 345.3 350.3 351.99 343.62 351.99 339.97"/><rect class="cls-18" x="362.96" y="336.4" width="11.93" height="17.9"/><rect class="cls-17" x="365.58" y="338.71" width="6.69" height="13.28"/><polygon class="cls-19" points="372.27 339.97 365.58 346.66 365.58 350.3 372.27 343.62 372.27 339.97"/><rect class="cls-18" x="383.24" y="336.4" width="11.93" height="17.9"/><rect class="cls-17" x="385.87" y="338.71" width="6.69" height="13.28"/><polygon class="cls-19" points="392.56 339.97 385.87 346.66 385.87 350.3 392.56 343.62 392.56 339.97"/><rect class="cls-18" x="403.53" y="336.4" width="11.93" height="17.9"/><rect class="cls-17" x="406.15" y="338.71" width="6.69" height="13.28"/><polygon class="cls-19" points="412.84 339.97 406.15 346.66 406.15 350.3 412.84 343.62 412.84 339.97"/><rect class="cls-18" x="423.81" y="336.4" width="11.93" height="17.9"/><rect class="cls-17" x="426.43" y="338.71" width="6.69" height="13.28"/><polygon class="cls-19" points="433.12 339.97 426.43 346.66 426.43 350.3 433.12 343.62 433.12 339.97"/><rect class="cls-18" x="444.09" y="336.4" width="11.93" height="17.9"/><rect class="cls-17" x="446.72" y="338.71" width="6.69" height="13.28"/><polygon class="cls-19" points="453.4 339.97 446.71 346.66 446.71 350.3 453.4 343.62 453.4 339.97"/><rect class="cls-18" x="464.38" y="336.4" width="11.93" height="17.9"/><rect class="cls-17" x="467" y="338.71" width="6.69" height="13.28"/><polygon class="cls-19" points="473.69 339.97 467 346.66 467 350.3 473.69 343.62 473.69 339.97"/><rect class="cls-18" x="484.66" y="336.4" width="11.93" height="17.9"/><rect class="cls-17" x="487.28" y="338.71" width="6.69" height="13.28"/><polygon class="cls-19" points="493.97 339.97 487.28 346.66 487.28 350.3 493.97 343.62 493.97 339.97"/><rect class="cls-18" x="342.68" y="379.53" width="11.93" height="17.9"/><rect class="cls-17" x="345.3" y="381.84" width="6.69" height="13.28"/><polygon class="cls-19" points="351.99 383.1 345.3 389.79 345.3 393.43 351.99 386.74 351.99 383.1"/><rect class="cls-18" x="362.96" y="379.53" width="11.93" height="17.9"/><rect class="cls-17" x="365.58" y="381.84" width="6.69" height="13.28"/><polygon class="cls-19" points="372.27 383.1 365.58 389.79 365.58 393.43 372.27 386.74 372.27 383.1"/><rect class="cls-18" x="383.24" y="379.53" width="11.93" height="17.9"/><rect class="cls-17" x="385.87" y="381.84" width="6.69" height="13.28"/><polygon class="cls-19" points="392.56 383.1 385.87 389.79 385.87 393.43 392.56 386.74 392.56 383.1"/><rect class="cls-18" x="403.53" y="379.53" width="11.93" height="17.9"/><rect class="cls-17" x="406.15" y="381.84" width="6.69" height="13.28"/><polygon class="cls-19" points="412.84 383.1 406.15 389.79 406.15 393.43 412.84 386.74 412.84 383.1"/><rect class="cls-18" x="423.81" y="379.53" width="11.93" height="17.9"/><rect class="cls-17" x="426.43" y="381.84" width="6.69" height="13.28"/><polygon class="cls-19" points="433.12 383.1 426.43 389.79 426.43 393.43 433.12 386.74 433.12 383.1"/><rect class="cls-18" x="444.09" y="379.53" width="11.93" height="17.9"/><rect class="cls-17" x="446.72" y="381.84" width="6.69" height="13.28"/><polygon class="cls-19" points="453.4 383.1 446.71 389.79 446.71 393.43 453.4 386.74 453.4 383.1"/><rect class="cls-18" x="464.38" y="379.53" width="11.93" height="17.9"/><rect class="cls-17" x="467" y="381.84" width="6.69" height="13.28"/><polygon class="cls-19" points="473.69 383.1 467 389.79 467 393.43 473.69 386.74 473.69 383.1"/><rect class="cls-18" x="484.66" y="379.53" width="11.93" height="17.9"/><rect class="cls-17" x="487.28" y="381.84" width="6.69" height="13.28"/><polygon class="cls-19" points="493.97 383.1 487.28 389.79 487.28 393.43 493.97 386.74 493.97 383.1"/><rect class="cls-15" x="39.93" y="340.61" width="273.25" height="62.58"/><rect class="cls-6" x="39.93" y="333.61" width="273.25" height="7.02"/><rect class="cls-17" x="166.64" y="355.91" width="20.67" height="47.28"/><polygon class="cls-20" points="227.93 359.37 211.4 388.27 199.82 388.27 199.82 382.16 212.84 359.37 227.93 359.37"/><polygon class="cls-20" points="243.41 359.37 226.85 388.27 217.04 388.27 233.57 359.37 243.41 359.37"/><rect class="cls-18" x="192.21" y="355.91" width="53.96" height="35.82"/><rect class="cls-21" x="192.21" y="391.73" width="53.96" height="2.65"/><rect class="cls-22" x="196.02" y="359.39" width="46.35" height="28.87"/><polygon class="cls-20" points="224.12 359.37 207.59 388.27 196.01 388.27 196.01 382.16 209.03 359.37 224.12 359.37"/><polygon class="cls-20" points="239.6 359.37 223.04 388.27 213.23 388.27 229.76 359.37 239.6 359.37"/><rect class="cls-18" x="253.33" y="355.91" width="53.96" height="35.82"/><rect class="cls-21" x="253.33" y="391.73" width="53.96" height="2.65"/><rect class="cls-22" x="257.13" y="359.39" width="46.35" height="28.87"/><polygon class="cls-20" points="285.24 359.37 268.7 388.27 257.13 388.27 257.13 382.16 270.15 359.37 285.24 359.37"/><polygon class="cls-20" points="300.71 359.37 284.16 388.27 274.35 388.27 290.88 359.37 300.71 359.37"/><rect class="cls-18" x="46.67" y="355.91" width="53.96" height="35.82"/><rect class="cls-21" x="46.67" y="391.73" width="53.96" height="2.65"/><rect class="cls-22" x="50.48" y="359.39" width="46.35" height="28.87"/><polygon class="cls-20" points="78.58 359.37 62.05 388.27 50.48 388.27 50.48 382.16 63.5 359.37 78.58 359.37"/><polygon class="cls-20" points="94.06 359.37 77.51 388.27 67.69 388.27 84.23 359.37 94.06 359.37"/><rect class="cls-18" x="107.79" y="355.91" width="53.96" height="35.82"/><rect class="cls-21" x="107.79" y="391.73" width="53.96" height="2.65"/><rect class="cls-22" x="111.6" y="359.39" width="46.35" height="28.87"/><polygon class="cls-20" points="139.7 359.37 123.17 388.27 111.59 388.27 111.59 382.16 124.62 359.37 139.7 359.37"/><polygon class="cls-20" points="155.18 359.37 138.62 388.27 128.81 388.27 145.34 359.37 155.18 359.37"/><path class="cls-23" d="M47.67,348.36a7.74,7.74,0,0,0,7.74-7.74H39.93A7.74,7.74,0,0,0,47.67,348.36Z"/><path class="cls-23" d="M61.24,348.36A7.74,7.74,0,0,0,69,340.62H53.5A7.74,7.74,0,0,0,61.24,348.36Z"/><path class="cls-23" d="M74.81,348.36a7.74,7.74,0,0,0,7.74-7.74H67.07A7.74,7.74,0,0,0,74.81,348.36Z"/><path class="cls-23" d="M88.37,348.36a7.74,7.74,0,0,0,7.74-7.74H80.64A7.74,7.74,0,0,0,88.37,348.36Z"/><path class="cls-23" d="M101.94,348.36a7.74,7.74,0,0,0,7.74-7.74H94.2A7.74,7.74,0,0,0,101.94,348.36Z"/><path class="cls-23" d="M115.51,348.36a7.74,7.74,0,0,0,7.74-7.74H107.77A7.74,7.74,0,0,0,115.51,348.36Z"/><path class="cls-23" d="M129.07,348.36a7.74,7.74,0,0,0,7.74-7.74H121.34A7.74,7.74,0,0,0,129.07,348.36Z"/><path class="cls-23" d="M142.64,348.36a7.74,7.74,0,0,0,7.74-7.74H134.9A7.74,7.74,0,0,0,142.64,348.36Z"/><path class="cls-23" d="M156.21,348.36a7.74,7.74,0,0,0,7.74-7.74H148.47A7.74,7.74,0,0,0,156.21,348.36Z"/><path class="cls-23" d="M169.78,348.36a7.74,7.74,0,0,0,7.74-7.74H162A7.74,7.74,0,0,0,169.78,348.36Z"/><path class="cls-23" d="M183.34,348.36a7.74,7.74,0,0,0,7.74-7.74H175.61A7.74,7.74,0,0,0,183.34,348.36Z"/><path class="cls-23" d="M196.91,348.36a7.74,7.74,0,0,0,7.74-7.74H189.17A7.74,7.74,0,0,0,196.91,348.36Z"/><path class="cls-23" d="M210.48,348.36a7.74,7.74,0,0,0,7.74-7.74H202.74A7.74,7.74,0,0,0,210.48,348.36Z"/><path class="cls-23" d="M224,348.36a7.74,7.74,0,0,0,7.74-7.74H216.31A7.74,7.74,0,0,0,224,348.36Z"/><path class="cls-23" d="M237.61,348.36a7.74,7.74,0,0,0,7.74-7.74H229.87A7.74,7.74,0,0,0,237.61,348.36Z"/><path class="cls-23" d="M251.18,348.36a7.74,7.74,0,0,0,7.74-7.74H243.44A7.74,7.74,0,0,0,251.18,348.36Z"/><path class="cls-23" d="M264.75,348.36a7.74,7.74,0,0,0,7.74-7.74H257A7.74,7.74,0,0,0,264.75,348.36Z"/><path class="cls-23" d="M278.31,348.36a7.74,7.74,0,0,0,7.74-7.74H270.58A7.74,7.74,0,0,0,278.31,348.36Z"/><path class="cls-23" d="M291.88,348.36a7.74,7.74,0,0,0,7.74-7.74H284.14A7.74,7.74,0,0,0,291.88,348.36Z"/><path class="cls-23" d="M305.45,348.36a7.74,7.74,0,0,0,7.74-7.74H297.71A7.74,7.74,0,0,0,305.45,348.36Z"/><path class="cls-12" d="M154,362.7a20.48,20.48,0,1,0-35.52-.12,5.84,5.84,0,0,1-2,7.93,38.38,38.38,0,1,0,39.63,0A5.79,5.79,0,0,1,154,362.7Z"/><path class="cls-13" d="M156.14,370.52a5.79,5.79,0,0,1-2.1-7.83,20.46,20.46,0,0,0-15.41-30.59,21.24,21.24,0,0,0-2.32-.13V441.76a38.37,38.37,0,0,0,19.83-71.23Z"/><path class="cls-14" d="M163.71,403.38a27.4,27.4,0,1,1-54.8,0"/><path class="cls-14" d="M151.73,403.38a15.42,15.42,0,1,1-30.84,0"/><line class="cls-14" x1="136.31" y1="390.68" x2="136.31" y2="484.4"/><line class="cls-14" x1="61.24" y1="385.32" x2="61.24" y2="483.24"/><path class="cls-7" d="M82,419a6.9,6.9,0,0,1-.79-8.38,23.74,23.74,0,0,0-2.89-29.43,6.87,6.87,0,0,1-.92-8.23A18.83,18.83,0,1,0,45,372.85a7,7,0,0,1-.84,8.37,23.74,23.74,0,0,0-2.89,29.43,6.93,6.93,0,0,1-.81,8.42A28.09,28.09,0,1,0,82,419Z"/><path class="cls-8" d="M82,419a6.9,6.9,0,0,1-.79-8.38,23.74,23.74,0,0,0-2.89-29.43,6.87,6.87,0,0,1-.92-8.23,18.81,18.81,0,0,0-14.07-28.27,19.52,19.52,0,0,0-2.13-.12V466A28.06,28.06,0,0,0,82,419Z"/><line class="cls-24" x1="247.56" y1="339.68" x2="247.56" y2="292.58"/><path class="cls-24" d="M257.17,313.13h-19a4,4,0,0,1-4-4h0a4,4,0,0,1,4-4h19a4,4,0,0,1,4,4h0A4,4,0,0,1,257.17,313.13Z"/><path class="cls-24" d="M257.17,328.19h-19a4,4,0,0,1-4-4h0a4,4,0,0,1,4-4h19a4,4,0,0,1,4,4h0A4,4,0,0,1,257.17,328.19Z"/><line class="cls-24" x1="289.41" y1="338.71" x2="289.41" y2="318.04"/><path class="cls-25" d="M277.15,426.46h0a2.89,2.89,0,0,0-3.6-2l-7.73,2a3,3,0,0,0-2.19,3.83l.31.83a2.94,2.94,0,0,0,3.84,1.59l7.42-2.79A3,3,0,0,0,277.15,426.46Z"/><path class="cls-26" d="M266.64,429.69a37.37,37.37,0,0,1-36.12-36.61"/><path class="cls-27" d="M244.17,415.83A33.27,33.27,0,0,1,234.51,393a4,4,0,0,0-4.06-3.91h0a4,4,0,0,0-3.91,4.07,41.37,41.37,0,0,0,36,40.18l1.22-7.88A33.24,33.24,0,0,1,244.17,415.83Z"/><path class="cls-28" d="M212,515.17c10.16-14.81,28.25-40.38,12-66.37"/><path class="cls-29" d="M233.91,522.66v-.11a4.22,4.22,0,0,0-4.1-4.29A29.55,29.55,0,0,1,226,518c-1.58-.25-3.85-2.82-5.18-4.21s-2.82-1.69-3.27-.69a6.16,6.16,0,0,1-5,3.24,5.23,5.23,0,0,1-4.73-2.52c-.14-.39-.36-.3-.36-.3-1.52,0-1.47,2-1.47,2v7.14Z"/><path class="cls-30" d="M206,522.66v1.56a.65.65,0,0,0,.65.65h26c1.31-.29,1.29-1.8,1.26-2.21Z"/><path class="cls-31" d="M206,523h27.86a.35.35,0,0,0,0-.69H206a.35.35,0,0,0,0,.69"/><path class="cls-32" d="M234.9,470.86a45.3,45.3,0,0,0-7.17-24.41,4.43,4.43,0,0,0-7.51,4.7A36.45,36.45,0,0,1,226,470.86c0,7.11-2,14.59-6.08,22.89a129.52,129.52,0,0,1-9,15.1l9.14,2.27a125.66,125.66,0,0,0,7.85-13.46C232.6,488.13,234.89,479.36,234.9,470.86Z"/><path class="cls-33" d="M161.39,497.47,156,514.08a2,2,0,0,0,1.27,2.49h0a2,2,0,0,0,2.33-.91L169,499.09a2,2,0,0,0-1.11-2.85l-2.49-.81A3.18,3.18,0,0,0,161.39,497.47Z"/><path class="cls-28" d="M166,498.84a49,49,0,0,0,44.55-53.11"/><path class="cls-34" d="M218.8,458.07c.33,0,.67,0,1,0a12.5,12.5,0,0,0,11.47-13.45,189.82,189.82,0,0,1,2.14-47.35A12.5,12.5,0,1,0,208.77,393a214.78,214.78,0,0,0-2.42,53.59A12.5,12.5,0,0,0,218.8,458.07Z"/><path class="cls-29" d="M156.15,517.36h.11a4.22,4.22,0,0,0,5.09-3.06,29.57,29.57,0,0,1,1.07-3.62c.59-1.48,3.6-3.13,5.24-4.13s2.27-2.38,1.39-3A6.15,6.15,0,0,1,167,498a5.23,5.23,0,0,1,3.5-4.06c.41-.05.38-.28.38-.28.33-1.49-1.62-1.87-1.62-1.87l-7-1.57Z"/><path class="cls-30" d="M162.27,490.18l-.4-.09-1.12-.25a.65.65,0,0,0-.78.49l-5.7,25.32c0,1.34,1.47,1.65,1.88,1.71Z"/><path class="cls-31" d="M161.93,490.1l-6.12,27.18a.35.35,0,1,0,.68.15l6.12-27.18a.35.35,0,0,0-.68-.15"/><path class="cls-34" d="M172.14,493.16a44.38,44.38,0,0,0,34-43.1c0-1.3-.06-2.62-.17-3.93a4.63,4.63,0,0,1,4.21-5l.41,0a4.6,4.6,0,0,1,4.61,4.22c.14,1.57.21,3.16.21,4.74a53.65,53.65,0,0,1-41.83,52.27Z"/><path class="cls-35" d="M232,441.1H205.06a215.4,215.4,0,0,1,2.8-48.28,13.39,13.39,0,0,1,13.21-11.14,13.56,13.56,0,0,1,2.3.2,13.42,13.42,0,0,1,10.94,15.51A188.67,188.67,0,0,0,232,441.1Z"/><path class="cls-36" d="M249.1,359.76a9.57,9.57,0,0,1,0,7.1,5.31,5.31,0,0,0,1.89-1.94c1.15-2,1-4.17-.31-5A2.12,2.12,0,0,0,249.1,359.76Z"/><path class="cls-37" d="M221.31,384.15l1.17-9.24a2.78,2.78,0,0,1,5.51.7l-1.17,9.24a2.78,2.78,0,0,1-5.51-.7"/><path class="cls-25" d="M225.63,381.91l2.05,1.21A10.49,10.49,0,0,0,242,379.4l7.22-12.26a8.91,8.91,0,0,0-3.16-12.2l-5.7-3.35a8.91,8.91,0,0,0-12.2,3.16l-6.67,11.33A11.57,11.57,0,0,0,225.63,381.91Z"/><path d="M243.64,371.42h0a.7.7,0,0,0,1-.25l.81-1.38a.7.7,0,0,0-.25-1h0a.7.7,0,0,0-1,.25l-.81,1.38A.7.7,0,0,0,243.64,371.42Z"/><path d="M235.11,366.4h0a.7.7,0,0,0,1-.25l.81-1.38a.7.7,0,0,0-.25-1h0a.7.7,0,0,0-1,.25l-.81,1.38A.7.7,0,0,0,235.11,366.4Z"/><path class="cls-38" d="M237.21,375a.41.41,0,0,0,.21.18,3,3,0,0,0,3.63-1.62.42.42,0,0,0-.11-.51l-1.82-1.45.2-1a13.18,13.18,0,0,1,4.07-6.17.41.41,0,0,0-.53-.63,13.75,13.75,0,0,0-4.35,6.62l-.25,1.23a.42.42,0,0,0,.15.41l1.74,1.38a2,2,0,0,1-2.43.94.41.41,0,0,0-.5.59Z"/><path class="cls-39" d="M232.3,348.83a2.67,2.67,0,0,1,2.28,1l.31-.52a4.2,4.2,0,0,1,5.75-1.49l8.63,5.08a2,2,0,0,0,2.7-.7l1.34-2.27,0,0a5,5,0,0,1,.89,3.62,11.1,11.1,0,0,0,1.32-2.71s2.85,6.18-.28,10.25a6,6,0,0,1-7.81,1.5l-11-6.48a2.66,2.66,0,0,0-3.64.94L228.73,364a3.21,3.21,0,0,1-4.18,1.33,3.09,3.09,0,0,1-1.24-4.31l6.11-10.37A3.56,3.56,0,0,1,232.3,348.83Z"/><circle class="cls-25" cx="222.14" cy="362.43" r="3.11" transform="matrix(0.51, -0.86, 0.86, 0.51, -202.89, 369.97)"/><circle class="cls-40" cx="222.14" cy="362.43" r="1.67" transform="translate(-157.43 553.81) rotate(-85.25)"/><path class="cls-25" d="M187.57,445.4h0a2.77,2.77,0,0,0,3.78-1.32l3.78-7a2.92,2.92,0,0,0-1.18-4.15l-.77-.32a2.88,2.88,0,0,0-3.63,1.79l-3,7.33A2.93,2.93,0,0,0,187.57,445.4Z"/><path class="cls-26" d="M192.4,434.74A37.37,37.37,0,0,1,213.9,388"/><path class="cls-35" d="M217.6,386.55a4,4,0,0,0-5.18-2.22,41.33,41.33,0,0,0-24.48,49.45l7.45-3a33.36,33.36,0,0,1,20-39,4,4,0,0,0,2.22-5.18Z"/><path class="cls-41" d="M395.33,281.84c-34.73,38.49-118-.22-100.83-70.81"/><path class="cls-42" d="M389.75,276.8a37.12,37.12,0,0,1-13.67,9.58,44.13,44.13,0,0,1-16.69,3.13c-13.9,0-29.09-5.86-40.5-16.34A59.25,59.25,0,0,1,305,254.32a58.39,58.39,0,0,1-5.32-24.68,70.93,70.93,0,0,1,2.1-16.83,7.52,7.52,0,1,0-14.61-3.56,86,86,0,0,0-2.53,20.39,73.46,73.46,0,0,0,6.7,31,76.83,76.83,0,0,0,68,43.92,59.15,59.15,0,0,0,22.37-4.24,52.2,52.2,0,0,0,19.15-13.43,7.52,7.52,0,1,0-11.16-10.07Z"/><path class="cls-43" d="M401.8,274.66a9.67,9.67,0,0,0-13.65.7,35.17,35.17,0,0,1-12.88,9,42,42,0,0,1-16,3c-1.1,0-2.2-.05-3.31-.13v19.33c1.14.06,2.28.13,3.42.13h0a61.07,61.07,0,0,0,23.18-4.4,54,54,0,0,0,19.94-14A9.68,9.68,0,0,0,401.8,274.66Z"/><path class="cls-33" d="M395.67,602.65H355.16a4.58,4.58,0,0,1-4.58-4.58h0a4.58,4.58,0,0,1,3.66-4.49l43.3-8.86a4.58,4.58,0,0,1,5.5,4.49v6.08A7.37,7.37,0,0,1,395.67,602.65Z"/><line class="cls-44" x1="394.54" y1="424.1" x2="394.54" y2="587.56"/><path class="cls-29" d="M344.49,600.88l0-.26c.32-9.76,9.51-10,9.51-10a68.57,68.57,0,0,0,8.73-.58c3.66-.58,8.93-6.55,12-9.76s6.55-3.92,7.58-1.61a14.28,14.28,0,0,0,11.56,7.51,12.13,12.13,0,0,0,11-5.84c.32-.9.83-.71.83-.71,3.53,0,3.4,4.63,3.4,4.63v16.57Z"/><path class="cls-45" d="M409.12,600.88v3.62A1.52,1.52,0,0,1,407.6,606H347.4c-3-.66-3-4.17-2.91-5.14Z"/><path class="cls-31" d="M409.12,601.69H344.49a.81.81,0,0,1,0-1.61h64.63a.81.81,0,1,1,0,1.61"/><path class="cls-46" d="M405.28,573.63V424.1a10.74,10.74,0,0,0-21.48,0V573.63Z"/><path class="cls-33" d="M543.6,532.57l12.48,38.54a4.58,4.58,0,0,1-2.95,5.77h0a4.58,4.58,0,0,1-5.4-2.1L526,536.32a4.58,4.58,0,0,1,2.58-6.62l5.78-1.87A7.37,7.37,0,0,1,543.6,532.57Z"/><path class="cls-44" d="M532.85,535.73A113.72,113.72,0,0,1,429.49,412.51"/><path class="cls-47" d="M410.42,441.15c-.77,0-1.55,0-2.33-.09a29,29,0,0,1-26.6-31.21,440.38,440.38,0,0,0-5-109.84,29,29,0,1,1,57.15-9.87,498.3,498.3,0,0,1,5.62,124.32A29,29,0,0,1,410.42,441.15Z"/><path class="cls-42" d="M286.07,184.3h0a7,7,0,0,1,9.19,3.89l6.91,17.18a7,7,0,0,1-4.7,9.43l-2.12.57a7,7,0,0,1-8.63-5l-4.79-17.75A7,7,0,0,1,286.07,184.3Z"/><path class="cls-29" d="M555.76,578.7l-.26,0c-9.59,1.83-11.8-7.09-11.8-7.09a68.55,68.55,0,0,0-2.48-8.39c-1.37-3.44-8.35-7.27-12.16-9.57s-5.26-5.53-3.23-7a14.28,14.28,0,0,0,4.79-12.93,12.13,12.13,0,0,0-8.11-9.43c-.95-.12-.87-.66-.87-.66-.78-3.45,3.76-4.34,3.76-4.34l16.17-3.64Z"/><path class="cls-45" d="M541.56,515.65l.94-.21,2.59-.58A1.52,1.52,0,0,1,546.9,516l13.23,58.73c0,3.11-3.41,3.83-4.37,4Z"/><path class="cls-31" d="M542.34,515.47l14.2,63.05a.81.81,0,1,1-1.57.35l-14.2-63.05a.81.81,0,0,1,1.57-.35"/><path class="cls-47" d="M518.66,522.55a103,103,0,0,1-78.87-100c0-3,.13-6.09.4-9.12a10.74,10.74,0,0,0-9.76-11.64c-.32,0-.64,0-1,0a10.67,10.67,0,0,0-10.69,9.8c-.32,3.64-.48,7.34-.48,11a124.47,124.47,0,0,0,97,121.27Z"/><path class="cls-45" d="M379.84,401.77h62.44a499.74,499.74,0,0,0-6.49-112,31.06,31.06,0,0,0-30.65-25.85,31.4,31.4,0,0,0-5.35.46,31.14,31.14,0,0,0-25.39,36A437.73,437.73,0,0,1,379.84,401.77Z"/><path class="cls-36" d="M383.34,187.27a22.21,22.21,0,0,0-14.25,8.26,12.33,12.33,0,0,1,1.7-6c2.6-4.58,7.21-6.87,10.31-5.11A4.92,4.92,0,0,1,383.34,187.27Z"/><path class="cls-48" d="M404.6,269.66l-2.72-21.44a6.44,6.44,0,0,0-12.79,1.62l2.72,21.44a6.44,6.44,0,0,0,12.79-1.62Z"/><path class="cls-25" d="M366,260.1l-4.8-2.72A24.34,24.34,0,0,1,352,224.19l16.29-28.7a20.68,20.68,0,0,1,28.19-7.78l13.34,7.57a20.68,20.68,0,0,1,7.78,28.19L402.56,250A26.84,26.84,0,0,1,366,260.1Z"/><path class="cls-49" d="M366.72,214.13A5.59,5.59,0,0,1,363,212"/><path class="cls-49" d="M387.17,225.73a5.59,5.59,0,0,1-3.77-2.14"/><path class="cls-50" d="M370.42,240.16a7.34,7.34,0,0,1-11.76-6.68"/><rect x="366.3" y="205.22" width="3.26" height="6.98" rx="0.72" ry="0.72" transform="translate(150.98 -154.42) rotate(29.58)"/><rect x="386.28" y="216.55" width="3.26" height="6.98" rx="0.72" ry="0.72" transform="translate(159.06 -162.74) rotate(29.56)"/><path class="cls-51" d="M366.44,228.82a1,1,0,0,1-.61-.22c-3.59-3-2.19-7.3-.94-9.18a1,1,0,0,1,1.15-.36l5,2,1.71-1.51a30.57,30.57,0,0,0,7.68-15.33,1,1,0,1,1,1.89.34,31.89,31.89,0,0,1-8.27,16.4l-2.17,1.93a1,1,0,0,1-1,.18l-4.8-1.89c-.6,1.25-1.47,4,.93,6a1,1,0,0,1-.61,1.7Z"/><line class="cls-52" x1="392.05" y1="211.1" x2="396.67" y2="216.47"/><line class="cls-52" x1="365.48" y1="199.91" x2="370.55" y2="199.76"/><path class="cls-39" d="M424.75,208.39a6.19,6.19,0,0,0-4.58-3.46l.7-1.23a9.75,9.75,0,0,0-3.67-13.29L397,178.94a4.58,4.58,0,0,1-1.72-6.24l3-5.32-.08,0a11.6,11.6,0,0,0-8.31,2.4A25.77,25.77,0,0,1,393.8,164s-15.71,1.43-20.28,12.44a14,14,0,0,0,6,17.45l25.78,14.63a6.17,6.17,0,0,1,2.32,8.41l-9.2,16.21a7.45,7.45,0,0,0,2.17,9.93,7.17,7.17,0,0,0,10.11-2.5l13.78-24.28A8.26,8.26,0,0,0,424.75,208.39Z"/><circle class="cls-25" cx="409.18" cy="244.56" r="7.21" transform="translate(-5.48 479.72) rotate(-60.42)"/><circle class="cls-53" cx="409.18" cy="244.56" r="3.87" transform="translate(-66.46 276.3) rotate(-34.68)"/><rect class="cls-54" x="383.07" y="214.5" width="27.84" height="1.66" transform="translate(158.01 -167.89) rotate(29.58)"/><line class="cls-55" x1="422.81" y1="281.23" x2="498.08" y2="417.97"/><path class="cls-25" d="M520.53,432.75h0a7,7,0,0,1-9.69,2.4L495,425.54a7,7,0,0,1-1.89-10.36l1.35-1.73a7,7,0,0,1,9.89-1.2l14.47,11.33A7,7,0,0,1,520.53,432.75Z"/><path class="cls-43" d="M428.17,311l16.75-9.67-13.64-24.78a9.67,9.67,0,1,0-16.94,9.32Z"/><path class="cls-56" d="M386.1,210l.49-.84-9.51-5.55-.49.84-21.86-12.76-7.24,12.4a2.71,2.71,0,0,0,1,3.7l19,11.08a2.71,2.71,0,0,0,3.7-1l5.25-9,6.5,3.79-5.25,9a2.71,2.71,0,0,0,1,3.7l19,11.08a2.71,2.71,0,0,0,3.7-1l7.24-12.4Z"/><rect class="cls-57" x="352.54" y="192.06" width="3.7" height="7.64" transform="translate(149.2 -153.2) rotate(30.62)"/><path class="cls-58" d="M352.62,196.34a1.29,1.29,0,0,0,.45,1.77l1.32-2.22A1.29,1.29,0,0,0,352.62,196.34Z"/><path class="cls-59" d="M354.39,195.88l-1.32,2.22a1.29,1.29,0,0,0,1.32-2.22Z"/><rect class="cls-54" x="352.59" y="197.66" width="27.84" height="1.66" transform="translate(150.07 -157.71) rotate(30.28)"/><rect class="cls-54" x="382.81" y="215.3" width="27.84" height="1.66" transform="matrix(0.86, 0.5, -0.5, 0.86, 163.08, -170.55)"/><circle class="cls-60" cx="353.73" cy="196.99" r="0.55" transform="translate(4 401.01) rotate(-59.37)"/><circle class="cls-60" cx="355.16" cy="194.58" r="0.55" transform="translate(6.79 401.08) rotate(-59.38)"/><line class="cls-61" x1="500.3" y1="280.82" x2="500.3" y2="190.88"/><rect class="cls-62" x="458.12" y="117.47" width="80.78" height="67.55"/><polyline class="cls-63" points="538.91 183.11 538.91 185.02 537 185.02"/><line class="cls-64" x1="534.11" y1="185.02" x2="461.48" y2="185.02"/><polyline class="cls-63" points="460.03 185.02 458.12 185.02 458.12 183.11"/><line class="cls-65" x1="458.12" y1="180.21" x2="458.12" y2="120.82"/><polyline class="cls-63" points="458.12 119.38 458.12 117.47 460.03 117.47"/><line class="cls-64" x1="462.92" y1="117.47" x2="535.55" y2="117.47"/><polyline class="cls-63" points="537 117.47 538.91 117.47 538.91 119.38"/><line class="cls-65" x1="538.91" y1="122.27" x2="538.91" y2="181.66"/><path class="cls-66" d="M525.38,147.58a1.66,1.66,0,0,1-1.18-.49,36.38,36.38,0,0,0-51.39,0,1.66,1.66,0,0,1-2.35-2.35,39.7,39.7,0,0,1,56.09,0,1.66,1.66,0,0,1-1.18,2.84Z"/><path class="cls-66" d="M518.38,154.58a1.66,1.66,0,0,1-1.18-.49,26.46,26.46,0,0,0-37.37,0,1.66,1.66,0,0,1-2.35-2.35,29.79,29.79,0,0,1,42.08,0,1.66,1.66,0,0,1-1.18,2.84Z"/><path class="cls-66" d="M511.37,161.59a1.66,1.66,0,0,1-1.18-.49,16.54,16.54,0,0,0-23.36,0,1.66,1.66,0,0,1-2.35-2.35,19.87,19.87,0,0,1,28.06,0,1.66,1.66,0,0,1-1.18,2.84Z"/><circle class="cls-66" cx="498.52" cy="169.65" r="6.05"/><line class="cls-63" x1="52.4" y1="374.35" x2="50.48" y2="374.35"/><path class="cls-67" d="M47.63,374.35H29.22a15.5,15.5,0,0,1-15.5-15.5v-23a15.5,15.5,0,0,1,15.5-15.5H78.7a15.5,15.5,0,0,0,15.5-15.5V282.59a15.5,15.5,0,0,0-15.54-15.5l-23.2.05a15.5,15.5,0,0,1-15.54-15.5V120.93a15.5,15.5,0,0,1,15.5-15.5H93.09"/><line class="cls-63" x1="94.51" y1="105.43" x2="96.42" y2="105.43"/><rect class="cls-68" x="96.42" y="67.1" width="80.78" height="67.55"/><polyline class="cls-63" points="177.2 132.74 177.2 134.65 175.29 134.65"/><line class="cls-69" x1="172.41" y1="134.65" x2="99.77" y2="134.65"/><polyline class="cls-63" points="98.33 134.65 96.42 134.65 96.42 132.74"/><line class="cls-65" x1="96.42" y1="129.84" x2="96.42" y2="70.46"/><polyline class="cls-63" points="96.42 69.01 96.42 67.1 98.33 67.1"/><line class="cls-69" x1="101.22" y1="67.1" x2="173.85" y2="67.1"/><polyline class="cls-63" points="175.29 67.1 177.2 67.1 177.2 69.01"/><line class="cls-65" x1="177.2" y1="71.91" x2="177.2" y2="131.29"/><ellipse class="cls-70" cx="136.81" cy="100.63" rx="27.17" ry="13.89"/><ellipse class="cls-70" cx="136.81" cy="100.63" rx="27.17" ry="13.89" transform="translate(-31.08 126.21) rotate(-45)"/><circle class="cls-66" cx="136.81" cy="100.63" r="4.22"/><line class="cls-63" x1="479.56" y1="41.87" x2="479.56" y2="39.96"/><path class="cls-71" d="M479.56,37.14v-24A12.22,12.22,0,0,0,467.34,1H414.42A12.22,12.22,0,0,0,402.2,13.17v14.9"/><line class="cls-63" x1="402.2" y1="29.48" x2="402.2" y2="31.39"/><rect class="cls-72" x="338.69" y="35.52" width="80.78" height="67.55"/><polyline class="cls-63" points="419.47 101.16 419.47 103.07 417.56 103.07"/><line class="cls-64" x1="414.67" y1="103.07" x2="342.04" y2="103.07"/><polyline class="cls-63" points="340.6 103.07 338.69 103.07 338.69 101.16"/><line class="cls-73" x1="338.69" y1="98.27" x2="338.69" y2="38.88"/><polyline class="cls-63" points="338.69 37.43 338.69 35.52 340.6 35.52"/><line class="cls-64" x1="343.48" y1="35.52" x2="416.12" y2="35.52"/><polyline class="cls-63" points="417.56 35.52 419.47 35.52 419.47 37.43"/><line class="cls-73" x1="419.47" y1="40.33" x2="419.47" y2="99.71"/><path class="cls-70" d="M396.64,63.72h-1.12c0-.09,0-.19,0-.28a15.33,15.33,0,1,0-30.66,0c0,.09,0,.19,0,.28h-3.35A13.38,13.38,0,0,0,348.14,77.1h0a13.38,13.38,0,0,0,13.38,13.38h35.12A13.38,13.38,0,0,0,410,77.1h0A13.38,13.38,0,0,0,396.64,63.72Z"/><line class="cls-63" x1="626.36" y1="362.43" x2="628.27" y2="362.43"/><path class="cls-74" d="M631.1,362.43h20.06A18.39,18.39,0,0,0,669.54,344V169.79"/><line class="cls-63" x1="669.54" y1="168.38" x2="669.54" y2="166.47"/><rect class="cls-75" x="626.36" y="91.69" width="80.78" height="67.55"/><polyline class="cls-63" points="707.14 157.33 707.14 159.24 705.23 159.24"/><line class="cls-64" x1="702.34" y1="159.24" x2="629.71" y2="159.24"/><polyline class="cls-63" points="628.27 159.24 626.36 159.24 626.36 157.33"/><line class="cls-65" x1="626.36" y1="154.43" x2="626.36" y2="95.05"/><polyline class="cls-63" points="626.36 93.6 626.36 91.69 628.27 91.69"/><line class="cls-64" x1="631.15" y1="91.69" x2="703.79" y2="91.69"/><polyline class="cls-63" points="705.23 91.69 707.14 91.69 707.14 93.6"/><line class="cls-65" x1="707.14" y1="96.49" x2="707.14" y2="155.88"/><path class="cls-70" d="M652.42,130c0-7.72,14-23.66,14-23.66s14,15.95,14,23.66a14,14,0,0,1-27.94,0Z"/><line class="cls-63" x1="211.96" y1="397.43" x2="211.96" y2="395.52"/><path class="cls-76" d="M212,392.62V364.51A12.53,12.53,0,0,0,199.43,352H187.22a12.53,12.53,0,0,1-12.53-12.53V312.52"/><line class="cls-63" x1="174.69" y1="311.07" x2="174.69" y2="309.16"/><rect class="cls-77" x="131.83" y="237.04" width="80.78" height="67.55"/><polyline class="cls-63" points="212.62 302.68 212.62 304.59 210.71 304.59"/><line class="cls-78" x1="207.82" y1="304.59" x2="135.19" y2="304.59"/><polyline class="cls-63" points="133.75 304.59 131.83 304.59 131.83 302.68"/><line class="cls-73" x1="131.83" y1="299.79" x2="131.83" y2="240.4"/><polyline class="cls-63" points="131.83 238.95 131.83 237.04 133.75 237.04"/><line class="cls-78" x1="136.63" y1="237.04" x2="209.26" y2="237.04"/><polyline class="cls-63" points="210.71 237.04 212.62 237.04 212.62 238.95"/><line class="cls-73" x1="212.62" y1="241.85" x2="212.62" y2="301.23"/><path class="cls-70" d="M194.14,253.28c-5.51-4.22-13.41-3.33-18.32,1.58L174.69,256l-1.13-1.13c-4.91-4.91-12.81-5.8-18.32-1.58a13.71,13.71,0,0,0-1.39,20.56l19.26,19.26a2.22,2.22,0,0,0,3.14,0l19.26-19.26A13.71,13.71,0,0,0,194.14,253.28Z"/><polyline class="cls-70" points="175.82 254.86 165.9 264.81 174.71 273.62 164.17 284.16"/><rect class="cls-79" x="190.08" y="86.87" width="80.78" height="67.55"/><polyline class="cls-63" points="270.86 152.51 270.86 154.42 268.95 154.42"/><line class="cls-64" x1="266.06" y1="154.42" x2="193.43" y2="154.42"/><polyline class="cls-63" points="191.99 154.42 190.08 154.42 190.08 152.51"/><line class="cls-73" x1="190.08" y1="149.61" x2="190.08" y2="90.23"/><polyline class="cls-63" points="190.08 88.78 190.08 86.87 191.99 86.87"/><line class="cls-64" x1="194.87" y1="86.87" x2="267.51" y2="86.87"/><polyline class="cls-63" points="268.95 86.87 270.86 86.87 270.86 88.78"/><line class="cls-73" x1="270.86" y1="91.68" x2="270.86" y2="151.06"/><line class="cls-63" x1="275.88" y1="365.36" x2="275.88" y2="363.45"/><path class="cls-80" d="M275.88,360.62V283.93a16.22,16.22,0,0,0-16.22-16.22H247.12a16.22,16.22,0,0,1-16.22-16.22V162.06"/><line class="cls-63" x1="230.9" y1="160.65" x2="230.9" y2="158.74"/><path class="cls-70" d="M243.74,101.12a10.07,10.07,0,0,0-2.82.41,11.32,11.32,0,0,0-20.43.16A10.09,10.09,0,1,0,219.41,121v24.51h22.67v-24.4a10.09,10.09,0,1,0,1.66-20Z"/><polygon class="cls-18" points="639.07 102.59 640.63 109.56 647.59 111.11 640.63 112.67 639.07 119.64 637.51 112.67 630.55 111.11 637.51 109.56 639.07 102.59"/><polygon class="cls-18" points="147.6 281.6 149.16 288.57 156.12 290.13 149.16 291.69 147.6 298.65 146.04 291.69 139.07 290.13 146.04 288.57 147.6 281.6"/><polygon class="cls-18" points="334.75 159.55 336.31 166.51 343.27 168.07 336.31 169.63 334.75 176.59 333.19 169.63 326.22 168.07 333.19 166.51 334.75 159.55"/><polygon class="cls-18" points="391.71 226.27 392.6 230.26 396.59 231.15 392.6 232.05 391.71 236.04 390.81 232.05 386.82 231.15 390.81 230.26 391.71 226.27"/><polygon class="cls-18" points="204.56 122.12 206.11 129.08 213.08 130.64 206.11 132.2 204.56 139.16 203 132.2 196.03 130.64 203 129.08 204.56 122.12"/><polygon class="cls-18" points="354.28 44 355.83 50.97 362.8 52.53 355.83 54.09 354.28 61.05 352.72 54.09 345.75 52.53 352.72 50.97 354.28 44"/><polygon class="cls-18" points="111.79 71.67 113.35 78.64 120.32 80.19 113.35 81.75 111.79 88.72 110.24 81.75 103.27 80.19 110.24 78.64 111.79 71.67"/><polygon class="cls-18" points="329.79 125.59 331.92 135.1 341.43 137.23 331.92 139.36 329.79 148.87 327.66 139.36 318.14 137.23 327.66 135.1 329.79 125.59"/></g></g></svg>